<svg xmlns="http://www.w3.org/2000/svg" width="234.08999999999997" height="35" viewBox="0 0 234.08999999999997 35"><rect class="svg__rect" x="0" y="0" width="64.89" height="35" fill="#B66934"/><rect class="svg__rect" x="62.89" y="0" width="171.2" height="35" fill="#AF4E0C"/><path class="svg__text" d="M14.08 19.16L14.08 19.16L14.08 13.47L15.56 13.47L15.56 19.18Q15.56 20.03 15.99 20.48Q16.43 20.93 17.27 20.93L17.27 20.93Q18.98 20.93 18.98 19.13L18.98 19.13L18.98 13.47L20.46 13.47L20.46 19.17Q20.46 20.53 19.59 21.32Q18.72 22.12 17.27 22.12L17.27 22.12Q15.81 22.12 14.94 21.33Q14.08 20.55 14.08 19.16ZM24.59 19.42L24.59 19.42L26.08 19.42Q26.08 20.15 26.56 20.55Q27.04 20.95 27.93 20.95L27.93 20.95Q28.71 20.95 29.10 20.63Q29.49 20.32 29.49 19.80L29.49 19.80Q29.49 19.24 29.09 18.94Q28.70 18.63 27.66 18.32Q26.63 18.01 26.02 17.63L26.02 17.63Q24.86 16.90 24.86 15.72L24.86 15.72Q24.86 14.69 25.70 14.02Q26.54 13.35 27.88 13.35L27.88 13.35Q28.77 13.35 29.47 13.68Q30.17 14.01 30.56 14.61Q30.96 15.22 30.96 15.96L30.96 15.96L29.49 15.96Q29.49 15.29 29.07 14.91Q28.65 14.54 27.87 14.54L27.87 14.54Q27.14 14.54 26.74 14.85Q26.34 15.16 26.34 15.71L26.34 15.71Q26.34 16.18 26.77 16.50Q27.21 16.81 28.20 17.10Q29.20 17.40 29.80 17.78Q30.41 18.16 30.69 18.65Q30.97 19.13 30.97 19.79L30.97 19.79Q30.97 20.86 30.15 21.49Q29.33 22.12 27.93 22.12L27.93 22.12Q27.01 22.12 26.23 21.77Q25.46 21.43 25.02 20.83Q24.59 20.22 24.59 19.42ZM40.84 22L35.26 22L35.26 13.47L40.80 13.47L40.80 14.66L36.74 14.66L36.74 17.02L40.24 17.02L40.24 18.19L36.74 18.19L36.74 20.82L40.84 20.82L40.84 22ZM44.60 19.42L44.60 19.42L46.08 19.42Q46.08 20.15 46.56 20.55Q47.04 20.95 47.94 20.95L47.94 20.95Q48.71 20.95 49.10 20.63Q49.49 20.32 49.49 19.80L49.49 19.80Q49.49 19.24 49.10 18.94Q48.70 18.63 47.67 18.32Q46.64 18.01 46.03 17.63L46.03 17.63Q44.86 16.90 44.86 15.72L44.86 15.72Q44.86 14.69 45.70 14.02Q46.54 13.35 47.89 13.35L47.89 13.35Q48.78 13.35 49.47 13.68Q50.17 14.01 50.57 14.61Q50.97 15.22 50.97 15.96L50.97 15.96L49.49 15.96Q49.49 15.29 49.07 14.91Q48.65 14.54 47.87 14.54L47.87 14.54Q47.15 14.54 46.75 14.85Q46.34 15.16 46.34 15.71L46.34 15.71Q46.34 16.18 46.78 16.50Q47.21 16.81 48.21 17.10Q49.20 17.40 49.81 17.78Q50.41 18.16 50.69 18.65Q50.97 19.13 50.97 19.79L50.97 19.79Q50.97 20.86 50.16 21.49Q49.34 22.12 47.94 22.12L47.94 22.12Q47.01 22.12 46.24 21.77Q45.46 21.43 45.03 20.83Q44.60 20.22 44.60 19.42Z" fill="#FFFFFF"/><path class="svg__text" d="M81.05 22L77.08 22L77.08 13.60L81.05 13.60Q82.43 13.60 83.50 14.12Q84.57 14.63 85.16 15.58Q85.74 16.53 85.74 17.80L85.74 17.80Q85.74 19.07 85.16 20.02Q84.57 20.97 83.50 21.48Q82.43 22 81.05 22L81.05 22ZM79.46 15.50L79.46 20.10L80.96 20.10Q82.03 20.10 82.69 19.49Q83.34 18.88 83.34 17.80L83.34 17.80Q83.34 16.72 82.69 16.11Q82.03 15.50 80.96 15.50L80.96 15.50L79.46 15.50ZM97.22 22L90.47 22L90.47 13.60L97.06 13.60L97.06 15.44L92.83 15.44L92.83 16.85L96.56 16.85L96.56 18.63L92.83 18.63L92.83 20.17L97.22 20.17L97.22 22ZM108.77 22L102.02 22L102.02 13.60L108.61 13.60L108.61 15.44L104.38 15.44L104.38 16.85L108.11 16.85L108.11 18.63L104.38 18.63L104.38 20.17L108.77 20.17L108.77 22ZM115.95 22L113.57 22L113.57 13.60L117.41 13.60Q118.55 13.60 119.39 13.98Q120.23 14.35 120.69 15.06Q121.15 15.76 121.15 16.71L121.15 16.71Q121.15 17.66 120.69 18.35Q120.23 19.05 119.39 19.42Q118.55 19.80 117.41 19.80L117.41 19.80L115.95 19.80L115.95 22ZM115.95 15.47L115.95 17.93L117.27 17.93Q118.00 17.93 118.37 17.61Q118.74 17.29 118.74 16.71L118.74 16.71Q118.74 16.12 118.37 15.80Q118.00 15.47 117.27 15.47L117.27 15.47L115.95 15.47ZM139.26 22L132.87 22L132.87 13.60L135.25 13.60L135.25 20.11L139.26 20.11L139.26 22ZM150.42 22L143.68 22L143.68 13.60L150.27 13.60L150.27 15.44L146.03 15.44L146.03 16.85L149.76 16.85L149.76 18.63L146.03 18.63L146.03 20.17L150.42 20.17L150.42 22ZM156.64 22L154.22 22L157.93 13.60L160.27 13.60L163.98 22L161.52 22L160.86 20.37L157.30 20.37L156.64 22ZM159.08 15.93L158.00 18.61L160.16 18.61L159.08 15.93ZM170.52 22L168.14 22L168.14 13.60L171.98 13.60Q173.12 13.60 173.96 13.98Q174.80 14.35 175.26 15.06Q175.71 15.76 175.71 16.71L175.71 16.71Q175.71 17.62 175.29 18.30Q174.86 18.98 174.07 19.36L174.07 19.36L175.88 22L173.34 22L171.81 19.77L170.52 19.77L170.52 22ZM170.52 15.47L170.52 17.93L171.84 17.93Q172.57 17.93 172.94 17.61Q173.31 17.29 173.31 16.71L173.31 16.71Q173.31 16.12 172.94 15.79Q172.57 15.47 171.84 15.47L171.84 15.47L170.52 15.47ZM182.83 22L180.50 22L180.50 13.60L182.46 13.60L186.17 18.07L186.17 13.60L188.49 13.60L188.49 22L186.54 22L182.83 17.52L182.83 22ZM196.03 22L193.66 22L193.66 13.60L196.03 13.60L196.03 22ZM203.54 22L201.21 22L201.21 13.60L203.17 13.60L206.87 18.07L206.87 13.60L209.20 13.60L209.20 22L207.25 22L203.54 17.52L203.54 22ZM213.94 17.80L213.94 17.80Q213.94 16.54 214.53 15.54Q215.13 14.55 216.20 13.99Q217.27 13.43 218.61 13.43L218.61 13.43Q219.79 13.43 220.73 13.83Q221.66 14.22 222.28 14.97L222.28 14.97L220.77 16.33Q219.93 15.40 218.75 15.40L218.75 15.40Q218.74 15.40 218.73 15.40L218.73 15.40Q217.66 15.40 216.99 16.06Q216.33 16.71 216.33 17.80L216.33 17.80Q216.33 18.50 216.63 19.04Q216.94 19.59 217.47 19.89Q218.01 20.20 218.71 20.20L218.71 20.20Q219.40 20.20 219.99 19.93L219.99 19.93L219.99 17.62L222.09 17.62L222.09 21.10Q221.37 21.61 220.44 21.89Q219.50 22.17 218.56 22.17L218.56 22.17Q217.25 22.17 216.19 21.61Q215.13 21.05 214.53 20.05Q213.94 19.06 213.94 17.80Z" fill="#FFFFFF" x="75.89"/></svg>